PathFileType	4	(X/Y/Z)	C:/Users/beibeiliu/ov580/test_trc/User1\sequence.15_training_dense_left.trc
DataRate	CameraRate	NumFrames	NumMarkers	Units	OrigDataRate	OrigDataStartFrame	OrigNumFrames
120	120	12	19	mm	120	103	273
Frame#	Time	ThumbCMC			ThumbMCP			ThumbIP			ThumbTip			IndexMCP			IndexPIP			IndexTip			MiddleMCP			MiddlePIP			MiddleTip			RingMCP			RingPIP			RingTip			PinkyMCP			PinkyPIP			PinkyTip			BackHand1			BackHand2			BackHand3	
		X0	Y0	Z0	X1	Y1	Z1	X2	Y2	Z2	X3	Y3	Z3	X4	Y4	Z4	X5	Y5	Z5	X6	Y6	Z6	X7	Y7	Z7	X8	Y8	Z8	X9	Y9	Z9	X10	Y10	Z10	X11	Y11	Z11	X12	Y12	Z12	X13	Y13	Z13	X14	Y14	Z14	X15	Y15	Z15	X16	Y16	Z16	X17	Y17	Z17	X18	Y18	Z18	
102	0.85	-165.033	69.743	53.2654	-141.044	59.7289	40.3736	-120.552	57.9135	29.1333	-98.7906	53.6861	24.5734	-152.707	108.979	-24.9362	-149.906	116.496	-46.9832	-152.825	125.24	-71.2709	-180.149	91.089	-46.6433	-174.48	57.247	-54.2807	-182.265	44.9855	-17.2178	-204.029	88.5828	-46.3119	-198.017	54.8301	-52.1205	-202.062	43.9635	-20.6594	-229.013	99.2675	-30.1047	-229.543	105.146	-52.2578	-236.255	117.688	-71.3806	-215.946	107.352	13.7839	-223.164	100.654	45.3289	-187.311	101.484	38.121	
103	0.858333	-169.295	72.1469	49.8278	-145.564	62.043	36.4308	-120.883	59.9085	25.3117	-99.9636	56.1167	15.9686	-156.038	119.519	-20.7651	-152.014	130.394	-44.3073	-150.638	141.234	-69.136	-178.348	103.125	-44.3821	-176.745	68.6457	-54.3815	-180.389	54.8095	-21.482	-199.503	100.61	-45.7209	-196.217	68.5708	-54.5297	-199.972	55.0518	-21.7318	-229.016	111.529	-31.3915	-228.999	117.552	-51.3861	-233.844	132.909	-69.9721	-215.384	113.436	14.9069	-224.789	105.214	45.7791	-188.586	105.439	39.6462	
104	0.866667	-169.847	73.2324	50.4129	-146.328	63.9043	29.3362	-123.167	60.3467	15.6642	-102.609	56.8772	1.14424	-153.191	128.141	-16.1014	-150.97	141.583	-40.5773	-150.989	155.043	-64.5772	-177.788	113.59	-41.6319	-174.542	81.4672	-55.0388	-179.11	65.1781	-17.3352	-198.525	110.671	-46.7877	-194.567	81.4983	-55.7679	-197.007	64.3855	-23.7128	-226.831	119.73	-26.5963	-226.976	127.798	-47.5472	-232.74	143.002	-64.3657	-215.299	122.223	18.174	-229.1	109.99	51.3638	-185.917	106.64	44.6149	
105	0.875	-168.533	77.1529	45.7845	-148.709	63.0803	24.0325	-130.818	63.6727	2.64205	-116.177	55.9868	-10.8828	-149.429	133.449	-12.1529	-150.199	147.001	-32.9758	-145.966	164.32	-57.4549	-170.478	121.569	-37.5372	-171.14	91.5047	-54.3721	-176.488	70.4032	-19.5867	-196.268	121.509	-38.8434	-190.921	87.9306	-53.6404	-196.177	70.9262	-22.2237	-227.406	128.192	-27.1069	-226.875	136.515	-44.2456	-224.633	151.156	-61.2389	-209.956	124.895	22.7495	-224.481	112.098	53.2596	-186.801	112.62	42.2638	
106	0.883333	-164.555	75.6835	46.573	-148.585	60.7423	20.8081	-134.074	62.8891	-5.24163	-122.138	59.3101	-28.1274	-148.543	140.234	-11.5156	-145.952	153.966	-30.4854	-145.623	168.357	-52.3733	-170.304	126.015	-38.8894	-169.317	96.0755	-51.7203	-178.221	75.3455	-17.3093	-193.706	125.96	-37.6176	-192.411	95.4486	-52.8809	-196.362	76.6006	-25.518	-222.301	134.39	-28.1245	-227.678	141.329	-43.4512	-227.971	158.692	-62.9148	-211.619	128.479	21.4208	-225.435	112.867	53.8679	-183.432	112.627	48.011	
107	0.891667	-167.846	77.2766	45.5858	-149.88	66.2815	12.7594	-139.939	65.2865	-9.7472	-129.266	62.0172	-34.3648	-147.663	141.653	-5.37106	-146.196	157.045	-27.1141	-146.579	171.678	-50.16	-168.761	128.554	-36.7204	-165.668	97.032	-49.2124	-174.982	77.9022	-20.0109	-192.878	127.138	-38.7051	-191.167	97.715	-53.0356	-190.897	78.3184	-23.0963	-221.969	135.996	-26.2248	-222.319	141.992	-42.5811	-222.209	158.821	-60.7477	-213.088	130.491	22.6795	-225.909	113.55	53.2177	-184.127	117.423	49.3252	
108	0.9	-167.569	78.3936	46.1166	-153.718	68.3013	11.7783	-142.024	67.3031	-13.6803	-138.58	64.94	-37.767	-147.612	143.911	-3.55615	-145.133	159.133	-24.6344	-140.721	174.691	-48.1273	-164.254	130.163	-34.6575	-162.774	97.1513	-47.1153	-170.095	78.2613	-15.4119	-190.131	126.808	-40.7982	-187.04	98.0371	-51.8068	-189.63	79.9207	-21.3744	-220.897	134.728	-27.384	-222.126	143.283	-45.8928	-218.444	158.712	-58.3589	-210.728	130.41	24.112	-224.901	115.83	52.1474	-185.822	117.23	47.4034	
109	0.908333	-167.456	81.2028	44.6291	-149.66	66.208	12.5081	-145.896	69.1483	-15.2215	-145.179	70.827	-43.3677	-149.977	144.961	-5.45397	-145.164	157.322	-22.7353	-141.608	171.145	-44.4095	-165.886	130.757	-29.7915	-159.702	98.2954	-47.3718	-171.131	78.6791	-18.0188	-188.159	126.558	-38.5704	-182.521	94.3129	-48.5402	-188.991	78.4663	-23.3622	-220.887	133.164	-29.4772	-216.145	141.14	-46.2326	-219.076	156.587	-61.2526	-214.307	127.332	24.4589	-227.194	114.3	53.4354	-187.422	117.127	51.5361	
110	0.916667	-166.486	79.9022	50.0051	-146.855	68.4945	12.1849	-145.064	71.3723	-15.5682	-151.168	73.7079	-40.4171	-151.106	144.203	-5.23709	-147.766	157.824	-28.4097	-143.757	169.517	-46.124	-164.018	127.45	-32.9624	-159.005	95.3751	-45.8512	-167.896	77.4163	-9.75285	-186.376	122.255	-38.4571	-179.074	91.468	-49.0454	-186.713	73.9761	-20.7699	-217.895	126.049	-30.0253	-215.884	132.283	-47.6372	-214.991	146.723	-63.7248	-216.941	123.98	21.4633	-230.783	110.726	50.268	-188.781	117.873	50.9964	
111	0.925	-166.659	86.7916	50.6793	-147.321	71.6328	20.7194	-141.452	72.5682	-8.88187	-146.538	69.4309	-37.1748	-155.411	145.23	-9.23347	-152.776	156.089	-30.7286	-149.391	168.19	-55.3019	-165.144	125.016	-35.1399	-157.67	93.4754	-44.4577	-167.78	78.5362	-7.40731	-189.743	113.367	-41.5151	-177.548	83.5456	-48.3305	-182.08	69.4653	-18.2638	-222.72	114.518	-31.0529	-219.807	121.044	-49.057	-219.595	137.667	-70.0954	-216.644	121.298	14.9038	-231.326	107.191	47.354	-196.554	118.167	46.9467	
112	0.933333	-165.275	94.0616	54.0284	-142.033	80.8042	21.732	-137.411	78.1928	-5.94541	-143.455	69.3711	-34.7949	-163.179	145.782	-14.5133	-157.837	156.635	-39.3148	-158.087	165.206	-65.4025	-173.696	118.578	-37.3841	-151.738	91.3049	-41.6391	-162.25	79.5401	-5.20726	-188.314	103.526	-44.3657	-171.088	76.755	-45.3218	-174.014	66.5337	-13.531	-219.806	102.921	-37.1474	-216.357	107.428	-51.123	-216.336	121.12	-74.2463	-223.832	110.633	13.1887	-233.35	101.69	42.1959	-200.896	121.307	41.834	
113	0.941667	-165.435	103.122	50.2373	-140.528	89.9729	25.4477	-132.207	83.9535	-4.36582	-139.935	70.2202	-32.1016	-173.352	141.955	-21.5521	-171.049	150.227	-49.5586	-170.848	155.819	-74.1435	-172.498	108.873	-43.5067	-148.668	88.1891	-38.6582	-164.839	83.7298	1.59133	-185.202	93.3264	-45.54	-163.259	72.001	-40.4994	-169.561	63.4909	-5.3379	-218.801	86.067	-35.5485	-217.051	90.9099	-57.7666	-217.616	101.598	-79.388	-222.593	103.729	8.98211	-237.356	90.8161	40.0734	-205.715	117.711	39.7911	
